<svg id="Layer_1" data-name="Layer 1" xmlns="http://www.w3.org/2000/svg" viewBox="0 0 96 96"><path d="M62.36,94H35.64a6.23,6.23,0,0,1-6.22-6.22v-23a4.21,4.21,0,0,0-2-3.59L26,60.34a6.17,6.17,0,0,1-2.95-5.29V33.21A6.24,6.24,0,0,1,29.31,27H68.69a6.24,6.24,0,0,1,6.22,6.23V55.05a6.17,6.17,0,0,1-3,5.29l-1.38.85a4.21,4.21,0,0,0-2,3.59v23A6.23,6.23,0,0,1,62.36,94Zm-33-65a4.24,4.24,0,0,0-4.22,4.23V55.05a4.21,4.21,0,0,0,2,3.59l1.38.85a6.18,6.18,0,0,1,3,5.29v23A4.23,4.23,0,0,0,35.64,92H62.36a4.23,4.23,0,0,0,4.22-4.22v-23a6.18,6.18,0,0,1,3-5.29l1.38-.85a4.21,4.21,0,0,0,2-3.59V33.21A4.24,4.24,0,0,0,68.69,29Z"/><path d="M65.69,56.55H32.31a4,4,0,0,1-4-4V36.21a4,4,0,0,1,4-4H65.69a4,4,0,0,1,4,4V52.55A4,4,0,0,1,65.69,56.55ZM32.31,34.21a2,2,0,0,0-2,2V52.55a2,2,0,0,0,2,2H65.69a2,2,0,0,0,2-2V36.21a2,2,0,0,0-2-2Z"/><path d="M41,73.63H37.05a1,1,0,0,1,0-2H41a1,1,0,0,1,0,2Z"/><path d="M51,73.63H47a1,1,0,1,1,0-2H51a1,1,0,1,1,0,2Z"/><path d="M61,73.63H57a1,1,0,0,1,0-2H61a1,1,0,0,1,0,2Z"/><path d="M41,65.09H37.05a1,1,0,0,1,0-2H41a1,1,0,0,1,0,2Z"/><path d="M61,65.09H57a1,1,0,0,1,0-2H61a1,1,0,0,1,0,2Z"/><path d="M41,80H37.05a1,1,0,0,1,0-2H41a1,1,0,0,1,0,2Z"/><path d="M51,80H47a1,1,0,0,1,0-2H51a1,1,0,0,1,0,2Z"/><path d="M61,80H57a1,1,0,1,1,0-2H61a1,1,0,0,1,0,2Z"/><path d="M41,86.34H37.05a1,1,0,0,1,0-2H41a1,1,0,0,1,0,2Z"/><path d="M51,86.34H47a1,1,0,1,1,0-2H51a1,1,0,1,1,0,2Z"/><path d="M61,86.34H57a1,1,0,0,1,0-2H61a1,1,0,1,1,0,2Z"/><path d="M41,86.34H37.05a1,1,0,0,1,0-2H41a1,1,0,0,1,0,2Z"/><path d="M51,86.34H47a1,1,0,1,1,0-2H51a1,1,0,1,1,0,2Z"/><path d="M61,86.34H57a1,1,0,0,1,0-2H61a1,1,0,1,1,0,2Z"/><path d="M49,68.13a4,4,0,1,1,4-4A4,4,0,0,1,49,68.13Zm0-6.07a2,2,0,1,0,2,2A2,2,0,0,0,49,62.06Z"/><path d="M42.51,23.72H35.84a1,1,0,0,1-1-1.11l2-18.55h0a2.32,2.32,0,0,1,4.61,0l2,18.55a1,1,0,0,1-1,1.11Zm-5.56-2H41.4L39.49,4.28c0-.32-.59-.32-.63,0Z"/><path d="M44.77,29H33.37a1,1,0,0,1-1-1V24.72a3,3,0,0,1,3-3h7.4a3,3,0,0,1,3,3V28A1,1,0,0,1,44.77,29Zm-10.4-2h9.4V24.72a1,1,0,0,0-1-1h-7.4a1,1,0,0,0-1,1Z"/><path d="M52.86,29a1,1,0,0,1-1-1V21.2a1,1,0,0,1,2,0V28A1,1,0,0,1,52.86,29Z"/><path d="M61,29a1,1,0,0,1-1-1V24.59a1,1,0,0,1,2,0V28A1,1,0,0,1,61,29Z"/></svg>